<svg width="24" height="24" viewBox="0 0 24 24" fill="none" xmlns="http://www.w3.org/2000/svg">
<mask id="mask0_2001_13120" style="mask-type:alpha" maskUnits="userSpaceOnUse" x="0" y="0" width="24" height="24">
<rect width="24" height="24" fill="#D9D9D9"/>
</mask>
<g mask="url(#mask0_2001_13120)">
<path d="M18.4655 20.9754C18.3577 20.9754 18.2583 20.9578 18.1673 20.9224C18.0763 20.8873 17.9872 20.8261 17.9 20.7389L12.9155 15.7734C12.8282 15.6863 12.7669 15.5972 12.7318 15.5062C12.6964 15.4152 12.6788 15.3158 12.6788 15.2082C12.6788 15.1005 12.6964 15.0011 12.7318 14.9099C12.7669 14.8189 12.8282 14.7298 12.9155 14.6427L14.5788 12.9792C14.6659 12.892 14.7551 12.8308 14.8463 12.7957C14.9373 12.7603 15.0366 12.7427 15.1443 12.7427C15.2519 12.7427 15.3513 12.7603 15.4423 12.7957C15.5333 12.8308 15.6223 12.892 15.7095 12.9792L20.6943 17.9639C20.7814 18.0511 20.8427 18.1402 20.878 18.2312C20.9132 18.3222 20.9308 18.4215 20.9308 18.5292C20.9308 18.637 20.9132 18.7364 20.878 18.8274C20.8427 18.9184 20.7814 19.0075 20.6943 19.0947L19.0308 20.7389C18.9436 20.8261 18.8545 20.8873 18.7635 20.9224C18.6725 20.9578 18.5732 20.9754 18.4655 20.9754ZM18.4655 19.9274L19.8635 18.5292L15.15 13.8159L13.752 15.2139L18.4655 19.9274ZM5.50951 20.9812C5.40185 20.9812 5.3016 20.9626 5.20876 20.9254C5.11576 20.8883 5.02568 20.8261 4.93851 20.7389L3.28076 19.1004C3.1936 19.0133 3.13143 18.9232 3.09426 18.8302C3.0571 18.7373 3.03851 18.637 3.03851 18.5292C3.03851 18.4215 3.0571 18.319 3.09426 18.2217C3.13143 18.1242 3.1936 18.0318 3.28076 17.9447L8.42701 12.7984H10.5135L11.2865 12.0254L7.04626 7.78493H5.62126L3.09626 5.25993L5.22876 3.12743L7.75376 5.65243V7.07743L11.9943 11.3177L15.0095 8.30243L13.1655 6.45818L14.2963 5.32743H12.0288L11.6173 4.93493L14.4558 2.09668L14.848 2.48893V4.77543L15.9788 3.64468L19.952 7.57918C20.1968 7.81135 20.3783 8.07776 20.4963 8.37843C20.6141 8.67893 20.673 8.99718 20.673 9.33318C20.673 9.57935 20.6365 9.81843 20.5635 10.0504C20.4903 10.2824 20.3827 10.5017 20.2405 10.7082L18.1923 8.65993L16.773 10.0792L15.7038 9.00993L11.202 13.5119V15.6312L6.07501 20.7389C5.98785 20.8261 5.89876 20.8883 5.80776 20.9254C5.71676 20.9626 5.61735 20.9812 5.50951 20.9812ZM5.50951 19.9082L10.4328 14.9849V13.5869H9.03451L4.11151 18.5099L5.50951 19.9082ZM5.50951 19.9082L4.11151 18.5099L4.81351 19.2062L5.50951 19.9082Z" fill="#484848"/>
</g>
</svg>
