<svg width="24" height="24" viewBox="0 0 24 24" fill="none" xmlns="http://www.w3.org/2000/svg">
<mask id="mask0_2001_13168" style="mask-type:alpha" maskUnits="userSpaceOnUse" x="0" y="0" width="24" height="24">
<rect width="24" height="24" fill="#D9D9D9"/>
</mask>
<g mask="url(#mask0_2001_13168)">
<path d="M17.8038 20.5077L11.2538 13.9462C10.8821 14.1179 10.5029 14.2532 10.116 14.352C9.72919 14.4507 9.31869 14.5 8.88452 14.5C7.35686 14.5 6.05827 13.9653 4.98877 12.8958C3.91927 11.8264 3.38452 10.5278 3.38452 9C3.38452 8.56667 3.4326 8.14967 3.52877 7.749C3.62494 7.34833 3.76535 6.96408 3.95002 6.59625L7.48452 10.0923L9.97702 7.6L6.51927 4.10375C6.88727 3.91925 7.26577 3.7725 7.65477 3.6635C8.04377 3.5545 8.45369 3.5 8.88452 3.5C10.4124 3.5 11.711 4.03475 12.7805 5.10425C13.8499 6.17358 14.3845 7.47217 14.3845 9C14.3845 9.46033 14.3384 9.88375 14.2463 10.2702C14.1539 10.6567 14.0154 11.0231 13.8308 11.3692L20.3923 17.9193C20.5411 18.0724 20.6155 18.2575 20.6155 18.4745C20.6155 18.6915 20.5425 18.8729 20.3965 19.0188L18.865 20.5505C18.7192 20.6963 18.543 20.7628 18.3365 20.75C18.1302 20.7372 17.9526 20.6564 17.8038 20.5077ZM18.3558 19.6327L19.5115 18.477L12.5923 11.5577C12.8538 11.1987 13.0512 10.7984 13.1845 10.3568C13.3179 9.91508 13.3845 9.46283 13.3845 9C13.3845 7.782 12.9131 6.69 11.9703 5.724C11.0273 4.758 9.81794 4.36667 8.34227 4.55L10.827 7.0345C10.9885 7.19617 11.0693 7.38467 11.0693 7.6C11.0693 7.81533 10.9885 8.00383 10.827 8.1655L8.05002 10.9423C7.88852 11.1038 7.70002 11.1845 7.48452 11.1845C7.26919 11.1845 7.08077 11.1038 6.91927 10.9423L4.43452 8.45775C4.28969 10.0744 4.70669 11.3189 5.68552 12.1912C6.66435 13.0637 7.73069 13.5 8.88452 13.5C9.32652 13.5 9.76844 13.4365 10.2103 13.3095C10.6521 13.1827 11.0609 12.984 11.4365 12.7135L18.3558 19.6327Z" fill="#484848"/>
</g>
</svg>
